<?xml version="1.0" encoding="UTF-8"?>
<!DOCTYPE svg PUBLIC "-//W3C//DTD SVG 1.1//EN" "http://www.w3.org/Graphics/SVG/1.1/DTD/svg11.dtd">
<svg xmlns="http://www.w3.org/2000/svg" version="1.1" width="100px" height="100px" style="shape-rendering:geometricPrecision; text-rendering:geometricPrecision; image-rendering:optimizeQuality; fill-rule:evenodd; clip-rule:evenodd" xmlns:xlink="http://www.w3.org/1999/xlink">
<g><path style="opacity:1" fill="#4343bf" d="M 86.5,70.5 C 84.5,70.5 82.5,70.5 80.5,70.5C 80.5,56.8333 80.5,43.1667 80.5,29.5C 61.8333,29.5 43.1667,29.5 24.5,29.5C 22.5,29.5 20.5,29.5 18.5,29.5C 18.5,27.5 18.5,25.5 18.5,23.5C 41.1667,23.5 63.8333,23.5 86.5,23.5C 86.5,39.1667 86.5,54.8333 86.5,70.5 Z"/></g>
<g><path style="opacity:1" fill="#3abcf8" d="M 18.5,29.5 C 20.5,29.5 22.5,29.5 24.5,29.5C 24.5,43.1667 24.5,56.8333 24.5,70.5C 43.1667,70.5 61.8333,70.5 80.5,70.5C 82.5,70.5 84.5,70.5 86.5,70.5C 86.5,73.8333 86.5,77.1667 86.5,80.5C 62.5,80.5 38.5,80.5 14.5,80.5C 14.5,63.5 14.5,46.5 14.5,29.5C 15.8333,29.5 17.1667,29.5 18.5,29.5 Z"/></g>
<g><path style="opacity:1" fill="#4b4dfe" d="M 24.5,29.5 C 43.1667,29.5 61.8333,29.5 80.5,29.5C 80.5,43.1667 80.5,56.8333 80.5,70.5C 61.8333,70.5 43.1667,70.5 24.5,70.5C 24.5,56.8333 24.5,43.1667 24.5,29.5 Z"/></g>
<g><path style="opacity:1" fill="#e7f0f5" d="M 43.5,36.5 C 50.9588,40.4019 57.9588,45.0686 64.5,50.5C 57.8333,54.8333 51.1667,59.1667 44.5,63.5C 43.5018,54.5246 43.1685,45.5246 43.5,36.5 Z"/></g>
<g><path style="opacity:1" fill="#5554fe" d="M 47.5,43.5 C 50.8153,45.8081 54.1486,48.1414 57.5,50.5C 54.4668,52.6976 51.3001,54.6976 48,56.5C 47.501,52.1794 47.3343,47.8461 47.5,43.5 Z"/></g>
</svg>
